<svg width="19" height="18" viewBox="0 0 19 18" fill="none" xmlns="http://www.w3.org/2000/svg">
<path fill-rule="evenodd" clip-rule="evenodd" d="M4.718 3.31793C3.47375 3.88643 2.5625 5.23943 2.5625 6.85268C2.5625 8.50043 3.2375 9.77093 4.2035 10.8599C5.00075 11.7569 5.96525 12.5009 6.90575 13.2254C7.12925 13.3979 7.35125 13.5697 7.5695 13.7414C7.964 14.0527 8.31575 14.3249 8.6555 14.5237C8.9945 14.7217 9.2675 14.8124 9.5 14.8124C9.7325 14.8124 10.0055 14.7224 10.3445 14.5237C10.6842 14.3249 11.036 14.0527 11.4305 13.7414C11.648 13.5689 11.8707 13.3979 12.0942 13.2262C13.0347 12.5002 13.9992 11.7569 14.7965 10.8599C15.7632 9.77093 16.4375 8.50043 16.4375 6.85268C16.4375 5.24018 15.5262 3.88643 14.282 3.31793C13.073 2.76518 11.4485 2.91143 9.905 4.51568C9.85253 4.57012 9.78962 4.61342 9.72003 4.643C9.65044 4.67258 9.57561 4.68782 9.5 4.68782C9.42439 4.68782 9.34955 4.67258 9.27997 4.643C9.21038 4.61342 9.14747 4.57012 9.095 4.51568C7.5515 2.91143 5.927 2.76518 4.718 3.31793ZM9.5 3.34493C7.766 1.79243 5.82425 1.57493 4.25 2.29418C2.5895 3.05543 1.4375 4.81943 1.4375 6.85343C1.4375 8.85218 2.27 10.3777 3.36275 11.6077C4.23725 12.5924 5.3075 13.4167 6.25325 14.1442C6.46775 14.3092 6.6755 14.4697 6.87275 14.6257C7.2575 14.9287 7.67 15.2512 8.08775 15.4957C8.5055 15.7394 8.9825 15.9382 9.5 15.9382C10.0175 15.9382 10.4945 15.7394 10.9122 15.4957C11.3307 15.2512 11.7425 14.9287 12.1272 14.6257C12.3327 14.4638 12.5392 14.3033 12.7467 14.1442C13.6917 13.4167 14.7627 12.5917 15.6372 11.6077C16.73 10.3777 17.5625 8.85218 17.5625 6.85343C17.5625 4.81943 16.4112 3.05543 14.75 2.29568C13.1757 1.57568 11.234 1.79318 9.5 3.34493Z" fill="#272727"/>
</svg>
